<?xml version="1.0" standalone="no"?>
<!DOCTYPE svg PUBLIC "-//W3C//DTD SVG 20010904//EN"
 "http://www.w3.org/TR/2001/REC-SVG-20010904/DTD/svg10.dtd">
<svg version="1.0" xmlns="http://www.w3.org/2000/svg"
 width="180.000000pt" height="180.000000pt" viewBox="0 0 180.000000 180.000000"
 preserveAspectRatio="xMidYMid meet">

<g transform="translate(0.000000,180.000000) scale(0.100000,-0.100000)"
fill="#ff0000" stroke="none">
<path d="M760 1751 l-35 -6 0 -835 c0 -787 1 -835 18 -838 16 -3 17 11 17 187
0 105 3 191 7 191 4 0 20 -12 35 -27 l28 -27 0 682 c0 643 -1 682 -17 681 -10
-1 -34 -4 -53 -8z"/>
<path d="M860 880 l0 -880 55 0 55 0 0 880 0 880 -55 0 -55 0 0 -880z"/>
<path d="M660 1731 l-25 -7 -3 -572 c-2 -486 0 -576 12 -595 12 -17 15 -67 15
-242 0 -180 2 -221 14 -223 11 -2 15 53 20 329 9 450 9 1319 0 1318 -5 -1 -19
-4 -33 -8z"/>
<path d="M563 1700 l-23 -9 0 -545 c0 -471 2 -546 15 -553 12 -7 15 -48 17
-242 2 -177 6 -235 16 -239 9 -3 12 161 12 797 0 441 -3 801 -7 800 -5 0 -18
-4 -30 -9z"/>
<path d="M483 1663 l-23 -15 0 -528 c0 -357 3 -529 10 -532 7 -2 11 -77 11
-214 l0 -211 24 -11 25 -12 0 223 c0 134 -4 227 -10 233 -6 6 -11 208 -12 546
l-3 535 -22 -14z"/>
<path d="M403 1615 l-23 -16 0 -685 0 -684 33 -20 c17 -11 35 -20 40 -20 4 0
6 86 5 190 -2 120 -7 189 -13 188 -7 -2 -12 182 -15 530 l-5 532 -22 -15z"/>
<path d="M322 1558 c-9 -9 -12 -143 -12 -539 0 -341 -4 -530 -10 -534 -6 -3
-10 -48 -10 -100 l0 -94 38 -26 37 -25 3 147 c2 95 -1 149 -8 151 -7 3 -10
175 -10 518 0 283 -4 514 -8 514 -4 0 -13 -5 -20 -12z"/>
<path d="M247 1482 c-15 -16 -16 -77 -17 -571 -2 -548 -1 -554 19 -575 l21
-20 0 592 c0 325 -2 592 -3 592 -2 0 -11 -8 -20 -18z"/>
<path d="M172 1390 c-9 -15 -12 -132 -12 -483 0 -392 2 -466 15 -483 13 -17
14 39 15 484 0 276 -1 502 -3 502 -1 0 -8 -9 -15 -20z"/>
<path d="M1243 1323 c-10 -4 -13 -134 -13 -604 l0 -598 23 8 22 8 3 564 c1
310 0 579 -3 597 -6 32 -9 35 -32 25z"/>
<path d="M1310 744 l0 -586 23 14 22 15 3 572 2 571 -25 0 -25 0 0 -586z"/>
<path d="M1380 770 c0 -308 2 -560 5 -560 3 0 19 10 35 22 l30 22 0 527 c0
290 -3 530 -7 532 -5 2 -20 7 -35 11 l-28 6 0 -560z"/>
<path d="M1167 1303 c-4 -3 -7 -278 -7 -611 0 -547 2 -604 16 -598 9 3 18 6
20 6 2 0 4 272 4 605 0 498 -2 605 -13 605 -8 0 -17 -3 -20 -7z"/>
<path d="M1470 788 l0 -512 30 29 30 29 0 473 c0 457 -1 473 -19 483 -11 5
-24 10 -30 10 -8 0 -11 -156 -11 -512z"/>
<path d="M106 1274 c-10 -27 -7 -728 4 -744 6 -10 10 119 10 373 0 213 -2 387
-4 387 -2 0 -7 -7 -10 -16z"/>
<path d="M1103 1273 c-10 -4 -13 -134 -13 -605 0 -543 2 -600 16 -594 9 3 18
6 20 6 2 0 4 270 4 600 0 330 -3 600 -7 599 -5 0 -14 -3 -20 -6z"/>
<path d="M1550 808 l1 -453 34 40 35 40 0 392 0 392 -29 20 c-16 12 -32 21
-35 21 -3 0 -6 -204 -6 -452z"/>
<path d="M1042 1218 c-9 -9 -12 -152 -12 -580 0 -498 2 -568 15 -568 13 0 15
71 15 580 0 319 -1 580 -3 580 -2 0 -8 -5 -15 -12z"/>
<path d="M1641 835 l0 -360 24 40 c35 57 73 175 87 272 20 141 -15 289 -91
383 l-21 25 1 -360z"/>
<path d="M32 1083 c-11 -28 -6 -315 6 -343 8 -19 11 21 11 168 1 105 -1 192
-4 192 -3 0 -9 -8 -13 -17z"/>
</g>
</svg>
